<svg width="40" height="40" viewBox="0 0 40 40" fill="none" xmlns="http://www.w3.org/2000/svg">
<g clip-path="url(#clip0_190_1103)">
<path d="M20 40L15 32.5H17.5V27.5H22.5V32.5H25L20 40ZM37.5 2.5V22.5H2.5V2.5H37.5ZM40 0H0V25H40V0Z" fill="#F95656"/>
<path d="M20 5C21.9891 5 23.8968 5.79018 25.3033 7.1967C26.7098 8.60322 27.5 10.5109 27.5 12.5C27.5 14.4891 26.7098 16.3968 25.3033 17.8033C23.8968 19.2098 21.9891 20 20 20H32.5V17.5H35V7.5H32.5V5H20ZM12.5 12.5C12.5 10.5109 13.2902 8.60322 14.6967 7.1967C16.1032 5.79018 18.0109 5 20 5H7.5V7.5H5V17.5H7.5V20H20C18.0109 20 16.1032 19.2098 14.6967 17.8033C13.2902 16.3968 12.5 14.4891 12.5 12.5Z" fill="#F95656"/>
</g>
<defs>
<clipPath id="clip0_190_1103">
<rect width="40" height="40" fill="white"/>
</clipPath>
</defs>
</svg>
