<svg width="100" height="95" viewBox="0 0 100 95" fill="none" xmlns="http://www.w3.org/2000/svg">
<path d="M53.461 3.98056C54.1563 2.53791 55.4532 2.13101 56.5313 2.08662C58.1719 2.01264 59.8907 3.08538 61.5078 4.35047C62.6563 5.57857 64.0313 6.52554 65.625 7.19138C66.7266 7.56129 67.8203 7.63527 68.9297 7.58348C70.4922 7.5095 72.0782 7.18398 73.6485 7.11L73.7344 7.1026L74.4453 7.04342C76.2422 6.96204 77.9375 7.36154 79.5469 8.24192C81.0235 9.51441 81.6719 11.0976 81.4688 13.0064C81.125 14.5822 81.4219 16.0248 82.3516 17.3343C83.9532 18.3997 85.6328 19.3318 87.3985 20.1234C89.2266 21.0704 90.375 22.4983 90.875 24.3996C91.0547 26.4119 90.0703 27.6992 87.9453 28.2541C85.1797 28.9125 81.461 28.9125 78.3282 31.2059C73.75 34.8237 72.3125 38.471 70.3203 39.0258C69.3438 37.9753 63.25 33.5142 53.0313 31.3761C51.2032 25.4057 50.0938 10.9941 53.461 3.98056Z" fill="#FCC21B"/>
<path d="M63.7734 30.1033C65.5703 26.7001 70.6875 20.715 71.9141 21.8987C73.125 23.186 70.3359 29.874 68.375 33.1514C67.6797 32.4559 65.4375 30.9985 64.4609 30.7543" fill="#D19B15"/>
<path d="M72.8125 41.001C71.7578 41.001 70.7265 40.4905 70.1406 39.5731C64.7656 31.1984 52.5937 32.0787 52.4765 32.0935C50.7578 32.2267 49.2422 31.0282 49.0937 29.408C49.0211 28.6286 49.2769 27.8537 49.8052 27.2522C50.3335 26.6507 51.0916 26.2715 51.914 26.1972C52.5703 26.138 68.0625 24.9321 75.4844 36.5103C76.3828 37.9085 75.9062 39.7285 74.4375 40.5719C73.9218 40.8604 73.3672 41.001 72.8125 41.001Z" fill="#8D6E63"/>
<path d="M75.0469 90.3099C61.6641 93.4319 43.0625 93.21 29.7735 90.7242C17.336 88.3938 7.81252 81.4469 8.90627 67.775C10.0156 53.9404 19.6953 40.9121 33.0078 35.1711C45.8906 29.6151 63.1797 26.9073 72.2891 39.5139C74.5547 42.6507 78.8828 49.6124 79.086 53.0304C79.1016 53.3041 79.1172 53.5482 79.1797 53.785C79.1953 54.6432 79.5625 55.5088 80.4531 56.145C86.1797 60.251 90.3516 65.6961 91.1172 73.1609C92.0235 82.0609 83.1328 88.4234 75.0469 90.3099Z" fill="#FCC21B"/>
<path d="M63.1797 67.4202C61.5547 64.9196 58.5625 62.2045 55.7344 59.874L57.9297 54.1182C59.8828 55.5609 61.6016 56.9148 62.9453 58.0837C63.1641 58.2834 63.5078 58.2982 63.7578 58.1281L68.7891 54.5843C68.9297 54.4807 69.0156 54.3328 69.0391 54.1626C69.0474 54.0795 69.0371 53.9957 69.0088 53.9167C68.9806 53.8376 68.935 53.7651 68.875 53.7039C67.3828 52.1281 64.1484 49.3686 60.6094 47.0973L61.8984 43.7238C62.0469 43.3391 61.8437 42.9174 61.4297 42.7694L55.5156 40.7423C55.1094 40.6017 54.6562 40.8015 54.5078 41.1862L53.5469 43.709C47.9766 42.074 43.5547 42.5992 40.0859 45.344C37.3672 47.5042 36.1953 50.5893 37.0234 53.3858C37.8672 56.3673 40.3359 58.4092 43.4609 60.9912L43.8594 61.3241C44.5859 61.9159 45.3594 62.53 46.1172 63.144L43.4453 70.1427C39.9375 67.9677 37 64.9566 36.5 64.2982C36.4063 64.1759 36.2671 64.0918 36.1105 64.0629C35.9538 64.0341 35.7915 64.0626 35.6562 64.1428L29.8594 67.6495C29.7188 67.7309 29.6172 67.8715 29.5781 68.0342C29.5469 68.1896 29.5781 68.3524 29.6719 68.4855C31.4141 70.9713 34.2656 73.7531 37.3047 75.9281C38.0312 76.446 39.125 77.171 40.4687 77.933L39.4609 80.5594C39.3203 80.9441 39.5234 81.3658 39.9297 81.5064L45.8516 83.5409C46.2578 83.6814 46.7109 83.4817 46.8594 83.097L47.6953 80.9071C53.1016 82.298 57.8516 81.4916 61.5234 78.5175C65.0703 75.6396 65.6797 71.6002 63.1797 67.4202ZM50.9219 50.6041L49.3047 54.8433C47.7969 53.7335 46.9922 52.8975 47.5625 51.699C48.1562 50.4709 49.6328 50.3895 50.9219 50.6041ZM52.5234 68.2858C53.5625 69.2402 54.2969 70.1205 54.3672 70.9269C54.3984 71.3856 54.2188 71.8295 53.7969 72.2882C53.0625 73.0946 51.8906 73.25 50.6797 73.1094L52.5234 68.2858Z" fill="#424242"/>
</svg>
