<svg width="34" height="36" viewBox="0 0 34 36" fill="none" xmlns="http://www.w3.org/2000/svg">
<mask id="path-1-inside-1_169_1222" fill="white">
<path d="M14.6417 0.525077C14.3328 0.523983 14.0228 0.524296 13.7121 0.525624C12.2162 0.532577 10.6964 0.571874 9.1637 0.628749L9.60713 2.57351C11.2033 2.39305 12.9532 2.25867 14.703 2.19148C15.651 2.15508 16.5932 2.13586 17.5071 2.1407C20.2489 2.155 22.7365 2.38523 24.3641 3.01586L25.06 3.2857L24.7493 3.96422C22.4789 8.92398 21.9539 13.7089 22.3096 18.4037C22.4853 12.832 24.8013 7.87641 27.8417 1.52344C23.7045 0.835936 19.2765 0.540468 14.6417 0.524999V0.525077ZM16.8319 3.55555C16.1491 3.55609 15.453 3.56992 14.757 3.59664C11.5014 3.72164 8.25706 4.10367 6.1426 4.54164C8.50456 8.92281 10.4153 13.3141 11.6491 17.5949C11.8026 17.5898 11.9562 17.591 12.1096 17.5984C12.4235 17.6138 12.7339 17.6564 13.0373 17.7227C11.7814 13.7073 10.351 10.0039 8.57276 6.30617L8.17096 5.4707L9.08393 5.30914C11.3774 4.90305 13.7446 4.74586 15.9975 4.74516C16.1477 4.74516 16.2975 4.7457 16.4466 4.74703C17.8782 4.75953 19.2578 4.83359 20.5361 4.94508L21.3997 5.02047L21.1478 5.84992C19.6869 10.6595 19.4007 15.8248 20.2267 20.7391C20.2405 20.7519 20.2544 20.7645 20.2678 20.7774C20.5657 20.673 20.8444 20.5666 21.1042 20.4529C20.4593 15.1877 20.745 9.75578 23.1533 4.10906C21.8094 3.76664 19.7607 3.58766 17.5096 3.55953C17.2837 3.55674 17.0578 3.55536 16.8319 3.55555ZM28.1557 4.1325C25.7373 9.25406 24.0196 13.3583 23.738 17.789C25.3035 12.5701 28.3293 7.89172 31.7774 4.88601C30.5805 4.58747 29.3724 4.3361 28.1557 4.1325ZM5.1119 5.58008C3.64627 5.88226 2.21456 6.26586 0.829712 6.79586C1.50362 7.38023 2.7219 8.46734 4.20003 9.91219C4.88034 9.21195 5.57417 8.52015 6.29784 7.89109C5.91455 7.11464 5.51918 6.34421 5.1119 5.58008ZM16.2074 6.16461C15.1434 6.15945 14.0542 6.18992 12.961 6.26562C12.8464 7.33453 12.2142 8.33453 11.4591 9.31797C12.6646 12.1671 13.7058 15.0745 14.6432 18.1612C16.0787 18.5847 17.4989 19.0852 18.6494 19.685C18.2221 16.368 18.2805 12.9691 18.8353 9.64531C17.8287 8.60547 17.3043 7.45078 17.2623 6.18125C16.9107 6.17188 16.5591 6.16633 16.2074 6.16461ZM30.4276 8.27281C28.4956 10.5619 26.7932 13.4288 25.6331 16.5472C27.7631 13.5173 30.3823 11.1541 33.1703 9.48469C32.262 9.06744 31.3477 8.66344 30.4276 8.27281ZM6.93229 9.20711C5.79213 10.2374 4.66557 11.4741 3.49237 12.6522C6.01495 14.1515 8.16354 15.927 9.91628 17.9381C10.0251 17.897 10.135 17.8601 10.2456 17.8264C9.42542 15.0064 8.30143 12.1207 6.93229 9.20711ZM25.1657 18.9534C23.8846 20.4993 22.6786 21.3155 21.018 21.9666C21.2048 22.687 20.9274 23.5139 20.2888 24.1464C19.9132 24.5184 19.4411 24.9423 18.751 25.2179C18.8505 25.2768 18.9522 25.3323 19.0557 25.3841C20.0216 25.8661 21.7281 25.7106 23.3135 24.9896C24.8939 24.2709 26.3058 23.0293 26.8291 21.7716C27.0914 21.0645 26.9041 20.6958 26.4449 20.155C26.1181 19.7702 25.6407 19.3823 25.1657 18.9534V18.9534ZM11.8782 18.9991C11.0411 18.9915 10.191 19.233 9.48838 19.7616C8.48917 20.5134 7.71885 21.8541 7.71198 24.1315V24.1471L7.7112 24.1627C7.48307 28.9581 7.8362 31.1705 8.53581 32.3709C9.15331 33.4305 10.1803 33.9377 11.6827 34.8705C11.7542 34.6825 11.8288 34.4513 11.8987 34.1597C12.0766 33.4176 12.2238 32.3984 12.3171 31.271C12.5037 29.0165 12.4764 26.3093 12.1643 24.3612L11.9994 23.3308L13.0163 23.5648C15.4862 24.133 16.8991 24.2001 17.7194 24.0554C18.5399 23.9105 18.8179 23.6239 19.2992 23.1473C19.7515 22.6995 19.7431 22.5383 19.6473 22.2862C19.5514 22.0341 19.1669 21.6187 18.5145 21.2212C17.2096 20.4262 14.9922 19.6891 12.9196 19.1394C12.5797 19.0494 12.2299 19.0023 11.8782 18.9991ZM26.6517 24.4223C25.8694 25.1843 24.9067 25.8098 23.8957 26.2697C22.2564 27.0152 20.4532 27.3562 18.9573 26.8598C18.4292 27.0563 18.1224 27.2822 17.9676 27.4691C17.7553 27.7257 17.742 27.9144 17.8139 28.1848C17.8858 28.4551 18.1003 28.776 18.3654 29.007C18.6305 29.2379 18.9456 29.3579 19.0653 29.3635C22.7211 29.5371 24.3033 28.488 26.2745 27.2711C26.8493 26.9162 27.0693 26.1974 27.0142 25.4796C26.9867 25.1207 26.8822 24.7834 26.7617 24.571C26.7317 24.5168 26.6947 24.4668 26.6517 24.4223ZM13.6683 25.1329C13.8814 27.0913 13.8849 29.3762 13.7185 31.387C13.621 32.5645 13.4704 33.6354 13.2662 34.4874C13.1774 34.8582 13.0796 35.187 12.9615 35.4764L24.4222 34.9713C24.2928 34.4909 24.161 34.0085 24.0292 33.5259C23.5888 33.6724 23.1388 33.7879 22.6823 33.8715L22.6857 33.9285L22.036 33.969C21.636 34.017 21.2195 34.0434 20.7874 34.0465L14.2358 34.4535L14.4306 33.5467C15.0514 30.6556 15.1087 28.1101 14.7257 25.3253C14.372 25.268 14.0194 25.2039 13.6682 25.1329H13.6683ZM16.1661 25.4988C16.4746 27.9936 16.4374 30.3746 15.9782 32.9363L17.4832 32.8429C17.2471 32.4946 17.085 32.1017 17.0066 31.6884C16.9053 31.1509 16.9617 30.5526 17.3133 30.0579C17.3289 30.0359 17.3456 30.0149 17.3623 29.9937C16.9524 29.6152 16.6101 29.1295 16.4549 28.5466C16.2898 27.9259 16.3929 27.1661 16.8844 26.5723C17.0468 26.3762 17.2431 26.1992 17.4737 26.0398C17.2698 25.8773 17.091 25.7051 16.9367 25.5256C16.6973 25.5273 16.441 25.5184 16.1661 25.4988ZM26.5307 28.7633C24.6982 29.8768 22.6392 30.9411 18.9986 30.7683C18.8798 30.7625 18.7617 30.7464 18.6457 30.7202C18.5493 30.7634 18.4979 30.8184 18.4596 30.8723C18.3843 30.9782 18.3399 31.1692 18.3885 31.428C18.486 31.9458 18.9764 32.5131 19.4331 32.5662C22.6663 32.9423 24.9002 31.8845 26.2566 30.654C26.8816 30.087 26.8869 29.7243 26.7949 29.3297C26.7488 29.1326 26.6472 28.9415 26.5307 28.7633ZM26.0085 32.5962C25.7915 32.7323 25.5687 32.859 25.3408 32.9759C25.4697 33.4487 25.5989 33.9214 25.7265 34.3942L27.2828 34.1152C26.8812 33.7724 26.567 33.4156 26.3148 33.0608C26.2021 32.9023 26.1028 32.7482 26.0085 32.5962Z"/>
</mask>
<path d="M14.6417 0.525077C14.3328 0.523983 14.0228 0.524296 13.7121 0.525624C12.2162 0.532577 10.6964 0.571874 9.1637 0.628749L9.60713 2.57351C11.2033 2.39305 12.9532 2.25867 14.703 2.19148C15.651 2.15508 16.5932 2.13586 17.5071 2.1407C20.2489 2.155 22.7365 2.38523 24.3641 3.01586L25.06 3.2857L24.7493 3.96422C22.4789 8.92398 21.9539 13.7089 22.3096 18.4037C22.4853 12.832 24.8013 7.87641 27.8417 1.52344C23.7045 0.835936 19.2765 0.540468 14.6417 0.524999V0.525077ZM16.8319 3.55555C16.1491 3.55609 15.453 3.56992 14.757 3.59664C11.5014 3.72164 8.25706 4.10367 6.1426 4.54164C8.50456 8.92281 10.4153 13.3141 11.6491 17.5949C11.8026 17.5898 11.9562 17.591 12.1096 17.5984C12.4235 17.6138 12.7339 17.6564 13.0373 17.7227C11.7814 13.7073 10.351 10.0039 8.57276 6.30617L8.17096 5.4707L9.08393 5.30914C11.3774 4.90305 13.7446 4.74586 15.9975 4.74516C16.1477 4.74516 16.2975 4.7457 16.4466 4.74703C17.8782 4.75953 19.2578 4.83359 20.5361 4.94508L21.3997 5.02047L21.1478 5.84992C19.6869 10.6595 19.4007 15.8248 20.2267 20.7391C20.2405 20.7519 20.2544 20.7645 20.2678 20.7774C20.5657 20.673 20.8444 20.5666 21.1042 20.4529C20.4593 15.1877 20.745 9.75578 23.1533 4.10906C21.8094 3.76664 19.7607 3.58766 17.5096 3.55953C17.2837 3.55674 17.0578 3.55536 16.8319 3.55555ZM28.1557 4.1325C25.7373 9.25406 24.0196 13.3583 23.738 17.789C25.3035 12.5701 28.3293 7.89172 31.7774 4.88601C30.5805 4.58747 29.3724 4.3361 28.1557 4.1325ZM5.1119 5.58008C3.64627 5.88226 2.21456 6.26586 0.829712 6.79586C1.50362 7.38023 2.7219 8.46734 4.20003 9.91219C4.88034 9.21195 5.57417 8.52015 6.29784 7.89109C5.91455 7.11464 5.51918 6.34421 5.1119 5.58008ZM16.2074 6.16461C15.1434 6.15945 14.0542 6.18992 12.961 6.26562C12.8464 7.33453 12.2142 8.33453 11.4591 9.31797C12.6646 12.1671 13.7058 15.0745 14.6432 18.1612C16.0787 18.5847 17.4989 19.0852 18.6494 19.685C18.2221 16.368 18.2805 12.9691 18.8353 9.64531C17.8287 8.60547 17.3043 7.45078 17.2623 6.18125C16.9107 6.17188 16.5591 6.16633 16.2074 6.16461ZM30.4276 8.27281C28.4956 10.5619 26.7932 13.4288 25.6331 16.5472C27.7631 13.5173 30.3823 11.1541 33.1703 9.48469C32.262 9.06744 31.3477 8.66344 30.4276 8.27281ZM6.93229 9.20711C5.79213 10.2374 4.66557 11.4741 3.49237 12.6522C6.01495 14.1515 8.16354 15.927 9.91628 17.9381C10.0251 17.897 10.135 17.8601 10.2456 17.8264C9.42542 15.0064 8.30143 12.1207 6.93229 9.20711ZM25.1657 18.9534C23.8846 20.4993 22.6786 21.3155 21.018 21.9666C21.2048 22.687 20.9274 23.5139 20.2888 24.1464C19.9132 24.5184 19.4411 24.9423 18.751 25.2179C18.8505 25.2768 18.9522 25.3323 19.0557 25.3841C20.0216 25.8661 21.7281 25.7106 23.3135 24.9896C24.8939 24.2709 26.3058 23.0293 26.8291 21.7716C27.0914 21.0645 26.9041 20.6958 26.4449 20.155C26.1181 19.7702 25.6407 19.3823 25.1657 18.9534V18.9534ZM11.8782 18.9991C11.0411 18.9915 10.191 19.233 9.48838 19.7616C8.48917 20.5134 7.71885 21.8541 7.71198 24.1315V24.1471L7.7112 24.1627C7.48307 28.9581 7.8362 31.1705 8.53581 32.3709C9.15331 33.4305 10.1803 33.9377 11.6827 34.8705C11.7542 34.6825 11.8288 34.4513 11.8987 34.1597C12.0766 33.4176 12.2238 32.3984 12.3171 31.271C12.5037 29.0165 12.4764 26.3093 12.1643 24.3612L11.9994 23.3308L13.0163 23.5648C15.4862 24.133 16.8991 24.2001 17.7194 24.0554C18.5399 23.9105 18.8179 23.6239 19.2992 23.1473C19.7515 22.6995 19.7431 22.5383 19.6473 22.2862C19.5514 22.0341 19.1669 21.6187 18.5145 21.2212C17.2096 20.4262 14.9922 19.6891 12.9196 19.1394C12.5797 19.0494 12.2299 19.0023 11.8782 18.9991ZM26.6517 24.4223C25.8694 25.1843 24.9067 25.8098 23.8957 26.2697C22.2564 27.0152 20.4532 27.3562 18.9573 26.8598C18.4292 27.0563 18.1224 27.2822 17.9676 27.4691C17.7553 27.7257 17.742 27.9144 17.8139 28.1848C17.8858 28.4551 18.1003 28.776 18.3654 29.007C18.6305 29.2379 18.9456 29.3579 19.0653 29.3635C22.7211 29.5371 24.3033 28.488 26.2745 27.2711C26.8493 26.9162 27.0693 26.1974 27.0142 25.4796C26.9867 25.1207 26.8822 24.7834 26.7617 24.571C26.7317 24.5168 26.6947 24.4668 26.6517 24.4223ZM13.6683 25.1329C13.8814 27.0913 13.8849 29.3762 13.7185 31.387C13.621 32.5645 13.4704 33.6354 13.2662 34.4874C13.1774 34.8582 13.0796 35.187 12.9615 35.4764L24.4222 34.9713C24.2928 34.4909 24.161 34.0085 24.0292 33.5259C23.5888 33.6724 23.1388 33.7879 22.6823 33.8715L22.6857 33.9285L22.036 33.969C21.636 34.017 21.2195 34.0434 20.7874 34.0465L14.2358 34.4535L14.4306 33.5467C15.0514 30.6556 15.1087 28.1101 14.7257 25.3253C14.372 25.268 14.0194 25.2039 13.6682 25.1329H13.6683ZM16.1661 25.4988C16.4746 27.9936 16.4374 30.3746 15.9782 32.9363L17.4832 32.8429C17.2471 32.4946 17.085 32.1017 17.0066 31.6884C16.9053 31.1509 16.9617 30.5526 17.3133 30.0579C17.3289 30.0359 17.3456 30.0149 17.3623 29.9937C16.9524 29.6152 16.6101 29.1295 16.4549 28.5466C16.2898 27.9259 16.3929 27.1661 16.8844 26.5723C17.0468 26.3762 17.2431 26.1992 17.4737 26.0398C17.2698 25.8773 17.091 25.7051 16.9367 25.5256C16.6973 25.5273 16.441 25.5184 16.1661 25.4988ZM26.5307 28.7633C24.6982 29.8768 22.6392 30.9411 18.9986 30.7683C18.8798 30.7625 18.7617 30.7464 18.6457 30.7202C18.5493 30.7634 18.4979 30.8184 18.4596 30.8723C18.3843 30.9782 18.3399 31.1692 18.3885 31.428C18.486 31.9458 18.9764 32.5131 19.4331 32.5662C22.6663 32.9423 24.9002 31.8845 26.2566 30.654C26.8816 30.087 26.8869 29.7243 26.7949 29.3297C26.7488 29.1326 26.6472 28.9415 26.5307 28.7633ZM26.0085 32.5962C25.7915 32.7323 25.5687 32.859 25.3408 32.9759C25.4697 33.4487 25.5989 33.9214 25.7265 34.3942L27.2828 34.1152C26.8812 33.7724 26.567 33.4156 26.3148 33.0608C26.2021 32.9023 26.1028 32.7482 26.0085 32.5962Z" fill="#58AF60" stroke="#58AF60" stroke-width="2" mask="url(#path-1-inside-1_169_1222)"/>
</svg>
